<?xml version="1.0" encoding="UTF-8" standalone="no"?>
<svg
   xmlns:dc="http://purl.org/dc/elements/1.1/"
   xmlns:cc="http://creativecommons.org/ns#"
   xmlns:rdf="http://www.w3.org/1999/02/22-rdf-syntax-ns#"
   xmlns:svg="http://www.w3.org/2000/svg"
   xmlns="http://www.w3.org/2000/svg"
   xmlns:sodipodi="http://sodipodi.sourceforge.net/DTD/sodipodi-0.dtd"
   xmlns:inkscape="http://www.inkscape.org/namespaces/inkscape"
   version="1.1"
   x="0px"
   y="0px"
   viewBox="0 0 10 10"
   enable-background="new 0 0 32 32"
   xml:space="preserve"
   id="svg52"
   sodipodi:docname="1.svg"
   width="10"
   height="10"
   inkscape:version="1.0.2 (e86c870879, 2021-01-15, custom)"><metadata
     id="metadata58"><rdf:RDF><cc:Work
         rdf:about=""><dc:format>image/svg+xml</dc:format><dc:type
           rdf:resource="http://purl.org/dc/dcmitype/StillImage" /><dc:title></dc:title></cc:Work></rdf:RDF></metadata><defs
     id="defs56" /><sodipodi:namedview
     pagecolor="#ffffff"
     bordercolor="#666666"
     borderopacity="1"
     objecttolerance="10"
     gridtolerance="10"
     guidetolerance="10"
     inkscape:pageopacity="0"
     inkscape:pageshadow="2"
     inkscape:window-width="1920"
     inkscape:window-height="986"
     id="namedview54"
     showgrid="false"
     inkscape:zoom="17.67767"
     inkscape:cx="17.205357"
     inkscape:cy="19.41824"
     inkscape:window-x="-11"
     inkscape:window-y="-11"
     inkscape:window-maximized="1"
     inkscape:current-layer="svg52" /><g
     display="none"
     id="g4"><rect
       x="-153.339"
       y="-186.66701"
       display="inline"
       fill="#000000"
       width="473.33301"
       height="236"
       id="rect2" /></g><g
     display="none"
     id="g10"><path
       display="inline"
       fill="#000000"
       d="M 32,32 H 0 V 0 H 32 L 26.946,5.172 H 5.054 v 21.657 h 21.892 z"
       id="path6" /><rect
       x="9.9619999"
       y="9.9619999"
       display="inline"
       fill="#000000"
       width="12.076"
       height="12.076"
       id="rect8" /></g><g
     display="none"
     id="g20"><g
       display="inline"
       id="g14"><path
         fill="#000000"
         d="m 29.625,1 -3.099,3.172 h -21.472 -1 v 1 21.657 1 h 1 21.472 L 29.625,31 H 1 V 1 H 29.625 M 32,0 H 0 V 32 H 32 L 26.946,26.828 H 5.054 V 5.172 h 21.893 z"
         id="path12" /></g><g
       display="inline"
       id="g18"><path
         fill="#000000"
         d="M 21.038,10.962 V 21.038 H 10.962 V 10.962 h 10.076 m 1,-1 H 9.962 v 12.076 h 12.076 z"
         id="path16" /></g></g><g
     display="none"
     id="g40"><g
       display="inline"
       id="g30"><g
         id="g24"><polygon
           fill="#000000"
           points="30.812,0.5 26.735,4.672 4.553,4.672 4.553,27.328 26.735,27.328 30.812,31.5 0.5,31.5 0.5,0.5 "
           id="polygon22" /></g><g
         id="g28"><path
           d="m 29.625,1 -3.099,3.172 h -21.472 -1 v 1 21.657 1 h 1 21.472 L 29.625,31 H 1 V 1 H 29.625 M 32,0 H 0 V 32 H 32 L 26.946,26.828 H 5.054 V 5.172 h 21.893 z"
           id="path26" /></g></g><g
       display="inline"
       id="g38"><rect
         x="10.462"
         y="10.462"
         fill="#000000"
         width="11.076"
         height="11.076"
         id="rect32" /><g
         id="g36"><path
           d="M 21.038,10.962 V 21.038 H 10.962 V 10.962 h 10.076 m 1,-1 H 9.962 v 12.076 h 12.076 z"
           id="path34" /></g></g></g><g
     id="g886"
     transform="scale(0.3125)"><g
       id="g46"><path
         d="M 32,32 H 0 V 0 H 32 L 26.946,5.172 H 5.054 v 21.657 h 21.892 z"
         id="path42" /><rect
         x="9.9619999"
         y="9.9619999"
         width="12.076"
         height="12.076"
         id="rect44" /></g></g></svg>
