<svg xmlns="http://www.w3.org/2000/svg" xmlns:xlink="http://www.w3.org/1999/xlink" version="1.1" x="0px" y="0px" viewBox="0 0 32 40" enable-background="new 0 0 32 32" xml:space="preserve"><g display="none"><rect x="-153.328" y="-144.667" display="inline" fill="#000000" width="473.333" height="236"/></g><g display="none"><g display="inline"><polyline fill="#000000" points="2.175,16 29.825,16 2.175,0   "/><polyline fill="#000000" points="2.175,16 29.825,16 2.175,32   "/><polyline fill="#000000" points="2.175,0 12.387,16 2.175,32   "/></g></g><g display="none"><g display="inline"><polygon fill="none" stroke="#000000" stroke-miterlimit="10" points="28.828,16.008 2.674,31.142 2.674,0.874   "/><polyline fill="none" stroke="#000000" stroke-miterlimit="10" points="2.674,0.874 12.333,16.008 2.674,31.142   "/><line fill="none" stroke="#000000" stroke-miterlimit="10" x1="28.828" y1="16.008" x2="12.333" y2="16.008"/></g></g><g display="none"><g display="inline"><polygon fill="#000000" points="2.674,1.153 11.993,16.01 2.674,30.813   "/><polygon fill="#000000" points="28.501,16.01 12.581,16.01 3.243,30.243   "/><polyline fill="#000000" points="3.243,1.434 28.501,15.667 12.581,15.667   "/><polygon fill="none" stroke="#000000" stroke-miterlimit="10" points="28.828,16 2.674,31.134 2.674,0.866   "/><polyline fill="none" stroke="#000000" stroke-miterlimit="10" points="2.674,0.866 12.333,16 2.674,31.134   "/><line fill="none" stroke="#000000" stroke-miterlimit="10" x1="28.828" y1="16" x2="12.333" y2="16"/></g></g><g><path d="M29.825,16L2.175,0v16v16L29.825,16z M4.589,28.217L12.446,16l13.257,0L4.589,28.217z"/></g><text x="0" y="47" fill="#000000" font-size="5px" font-weight="bold" font-family="'Helvetica Neue', Helvetica, Arial-Unicode, Arial, Sans-serif">Created by Alfredo @ IconsAlfredo.com</text><text x="0" y="52" fill="#000000" font-size="5px" font-weight="bold" font-family="'Helvetica Neue', Helvetica, Arial-Unicode, Arial, Sans-serif">from the Noun Project</text></svg>