<?xml version="1.0" encoding="UTF-8" standalone="no"?>
<svg
   xmlns:dc="http://purl.org/dc/elements/1.1/"
   xmlns:cc="http://creativecommons.org/ns#"
   xmlns:rdf="http://www.w3.org/1999/02/22-rdf-syntax-ns#"
   xmlns:svg="http://www.w3.org/2000/svg"
   xmlns="http://www.w3.org/2000/svg"
   xmlns:sodipodi="http://sodipodi.sourceforge.net/DTD/sodipodi-0.dtd"
   xmlns:inkscape="http://www.inkscape.org/namespaces/inkscape"
   version="1.1"
   x="0px"
   y="0px"
   viewBox="0 0 10 10"
   enable-background="new 0 0 32 32"
   xml:space="preserve"
   id="svg46"
   sodipodi:docname="3.svg"
   width="10"
   height="10"
   inkscape:version="1.0.2 (e86c870879, 2021-01-15, custom)"><metadata
     id="metadata52"><rdf:RDF><cc:Work
         rdf:about=""><dc:format>image/svg+xml</dc:format><dc:type
           rdf:resource="http://purl.org/dc/dcmitype/StillImage" /><dc:title></dc:title></cc:Work></rdf:RDF></metadata><defs
     id="defs50" /><sodipodi:namedview
     pagecolor="#ffffff"
     bordercolor="#666666"
     borderopacity="1"
     objecttolerance="10"
     gridtolerance="10"
     guidetolerance="10"
     inkscape:pageopacity="0"
     inkscape:pageshadow="2"
     inkscape:window-width="1494"
     inkscape:window-height="958"
     id="namedview48"
     showgrid="false"
     inkscape:zoom="25"
     inkscape:cx="16"
     inkscape:cy="10.32"
     inkscape:window-x="0"
     inkscape:window-y="0"
     inkscape:window-maximized="0"
     inkscape:current-layer="svg46" /><g
     display="none"
     id="g4"><rect
       x="-104.596"
       y="-143.69901"
       display="inline"
       fill="#000000"
       width="240.181"
       height="241.399"
       id="rect2" /></g><g
     display="none"
     id="g10"><path
       display="inline"
       d="M 15.995,31.995 1.58,24.007 V 7.993 L 15.995,0.005 30.41,7.993 V 24.007 Z M 2.58,23.417 15.995,30.853 29.41,23.417 V 8.583 L 15.995,1.147 2.58,8.583 Z"
       id="path6" /><path
       display="inline"
       d="m 15.995,22.593 -5.933,-3.287 v -6.611 l 5.933,-3.287 5.933,3.287 v 6.611 z m -4.933,-3.877 4.933,2.734 4.933,-2.734 v -5.432 l -4.933,-2.734 -4.933,2.734 z"
       id="path8" /></g><g
     display="none"
     id="g24"><g
       display="inline"
       id="g16"><polygon
         fill="#000000"
         points="29.909,8.288 29.909,23.712 15.995,31.423 2.08,23.712 2.08,8.288 15.995,0.577 "
         id="polygon12" /><path
         d="M 15.995,31.995 1.58,24.007 V 7.993 L 15.995,0.005 30.41,7.993 V 24.007 Z M 2.58,23.417 15.995,30.853 29.41,23.417 V 8.583 L 15.995,1.147 2.58,8.583 Z"
         id="path14" /></g><g
       display="inline"
       id="g22"><polygon
         fill="#000000"
         points="21.428,12.989 21.428,19.011 15.995,22.022 10.562,19.011 10.562,12.989 15.995,9.978 "
         id="polygon18" /><path
         d="m 15.995,22.593 -5.933,-3.287 v -6.611 l 5.933,-3.287 5.933,3.287 v 6.611 z m -4.933,-3.877 4.933,2.734 4.933,-2.734 v -5.432 l -4.933,-2.734 -4.933,2.734 z"
         id="path20" /></g></g><g
     display="none"
     id="g34"><g
       display="inline"
       id="g28"><polygon
         fill="#000000"
         points="30.435,8 30.435,24 16,32 1.565,24 1.565,8 16,0 "
         id="polygon26" /></g><g
       display="inline"
       id="g32"><polygon
         fill="#000000"
         points="21.636,12.877 21.636,19.123 16,22.247 10.364,19.123 10.364,12.877 16,9.753 "
         id="polygon30" /></g></g><g
     id="g40"
     transform="matrix(0.31174229,0,0,0.3125,0.01212332,0)"><g
       id="g38"><path
         d="M 1.565,8 V 24 L 16,32 30.435,24 V 8 L 16,0 Z M 21.636,19.123 16,22.247 10.364,19.124 V 12.877 L 16,9.753 l 5.636,3.123 z"
         id="path36" /></g></g></svg>
