<svg xmlns="http://www.w3.org/2000/svg" xmlns:xlink="http://www.w3.org/1999/xlink" version="1.1" x="0px" y="0px" viewBox="0 0 32 40" enable-background="new 0 0 32 32" xml:space="preserve"><g display="none"><rect x="-104.596" y="-143.699" display="inline" fill="#000000" width="240.181" height="241.399"/></g><g display="none"><path display="inline" d="M15.995,31.995L1.58,24.007V7.993l14.415-7.988L30.41,7.993v16.014L15.995,31.995z M2.58,23.417   l13.415,7.436l13.415-7.436V8.583L15.995,1.147L2.58,8.583V23.417z"/><path display="inline" d="M15.995,22.593l-5.933-3.287v-6.611l5.933-3.287l5.933,3.287v6.611L15.995,22.593z M11.062,18.716   l4.933,2.734l4.933-2.734v-5.432l-4.933-2.734l-4.933,2.734V18.716z"/></g><g display="none"><g display="inline"><polygon fill="#000000" points="2.08,8.288 15.995,0.577 29.909,8.288 29.909,23.712 15.995,31.423 2.08,23.712   "/><path d="M15.995,31.995L1.58,24.007V7.993l14.415-7.988L30.41,7.993v16.014L15.995,31.995z M2.58,23.417l13.415,7.436    l13.415-7.436V8.583L15.995,1.147L2.58,8.583V23.417z"/></g><g display="inline"><polygon fill="#000000" points="10.562,12.989 15.995,9.978 21.428,12.989 21.428,19.011 15.995,22.022 10.562,19.011   "/><path d="M15.995,22.593l-5.933-3.287v-6.611l5.933-3.287l5.933,3.287v6.611L15.995,22.593z M11.062,18.716l4.933,2.734    l4.933-2.734v-5.432l-4.933-2.734l-4.933,2.734V18.716z"/></g></g><g display="none"><g display="inline"><polygon fill="#000000" points="1.565,8 16,0 30.435,8 30.435,24 16,32 1.565,24   "/></g><g display="inline"><polygon fill="#000000" points="10.364,12.877 16,9.753 21.636,12.877 21.636,19.123 16,22.247 10.364,19.123   "/></g></g><g><g><path d="M1.565,8v16L16,32l14.435-8V8L16,0L1.565,8z M21.636,19.123L16,22.247l-5.636-3.123v-6.247L16,9.753l5.636,3.123V19.123z"/></g></g><text x="0" y="47" fill="#000000" font-size="5px" font-weight="bold" font-family="'Helvetica Neue', Helvetica, Arial-Unicode, Arial, Sans-serif">Created by Alfredo @ IconsAlfredo.com</text><text x="0" y="52" fill="#000000" font-size="5px" font-weight="bold" font-family="'Helvetica Neue', Helvetica, Arial-Unicode, Arial, Sans-serif">from the Noun Project</text></svg>