<svg xmlns="http://www.w3.org/2000/svg" xmlns:xlink="http://www.w3.org/1999/xlink" version="1.1" x="0px" y="0px" viewBox="0 0 32 32" enable-background="new 0 0 32 32" xml:space="preserve"><g display="none"><rect x="-65.591" y="-26.699" display="inline" fill="#000000" width="240.181" height="241.399"/></g><g display="none"><path display="inline" d="M32.002,31.953H-0.001V0.047L32.002,31.953z M0.999,30.953h28.583L0.999,2.456V30.953z"/><path display="inline" d="M9.653,11.084l11.275,11.241H9.653V11.084 M8.653,8.675v14.65h14.694L8.653,8.675L8.653,8.675z"/></g><g display="none"><g display="inline"><polygon fill="#000000" points="30.792,31.453 0.499,31.453 0.499,1.251   "/><path d="M32.002,31.953H-0.001V0.047L32.002,31.953z M0.999,30.953h28.583L0.999,2.456V30.953z"/></g><g display="inline"><g><polygon fill="#000000" points="9.153,22.825 9.153,9.879 22.137,22.825    "/></g><g><g><path d="M9.653,11.084l11.275,11.241H9.653V11.084 M8.653,8.675v14.65h14.694L8.653,8.675L8.653,8.675z"/></g></g></g></g><g display="none"><g display="inline"><polygon fill="#000000" points="32,31.952 0,31.952 0,0.048   "/></g><g display="inline"><polygon fill="#000000" points="23.347,23.325 8.653,23.325 8.653,8.675   "/></g></g><g><g><polygon points="23.347,23.325 8.653,23.325 8.653,8.675 0,0.048 0,31.952 32,31.952   "/></g></g><text x="0" y="47" fill="#000000" font-size="5px" font-weight="bold" font-family="'Helvetica Neue', Helvetica, Arial-Unicode, Arial, Sans-serif">Created by Alfredo @ IconsAlfredo.com</text><text x="0" y="52" fill="#000000" font-size="5px" font-weight="bold" font-family="'Helvetica Neue', Helvetica, Arial-Unicode, Arial, Sans-serif">from the Noun Project</text></svg>