<?xml version="1.0" encoding="UTF-8" standalone="no"?>
<svg
   xmlns:dc="http://purl.org/dc/elements/1.1/"
   xmlns:cc="http://creativecommons.org/ns#"
   xmlns:rdf="http://www.w3.org/1999/02/22-rdf-syntax-ns#"
   xmlns:svg="http://www.w3.org/2000/svg"
   xmlns="http://www.w3.org/2000/svg"
   xmlns:sodipodi="http://sodipodi.sourceforge.net/DTD/sodipodi-0.dtd"
   xmlns:inkscape="http://www.inkscape.org/namespaces/inkscape"
   version="1.1"
   x="0px"
   y="0px"
   viewBox="0 0 10 10"
   enable-background="new 0 0 32 32"
   xml:space="preserve"
   id="svg52"
   sodipodi:docname="4.svg"
   width="10"
   height="10"
   inkscape:version="1.0.2 (e86c870879, 2021-01-15, custom)"><metadata
     id="metadata58"><rdf:RDF><cc:Work
         rdf:about=""><dc:format>image/svg+xml</dc:format><dc:type
           rdf:resource="http://purl.org/dc/dcmitype/StillImage" /><dc:title></dc:title></cc:Work></rdf:RDF></metadata><defs
     id="defs56" /><sodipodi:namedview
     pagecolor="#ffffff"
     bordercolor="#666666"
     borderopacity="1"
     objecttolerance="10"
     gridtolerance="10"
     guidetolerance="10"
     inkscape:pageopacity="0"
     inkscape:pageshadow="2"
     inkscape:window-width="1920"
     inkscape:window-height="986"
     id="namedview54"
     showgrid="false"
     inkscape:zoom="12.5"
     inkscape:cx="25.406689"
     inkscape:cy="21.234218"
     inkscape:window-x="-11"
     inkscape:window-y="-11"
     inkscape:window-maximized="1"
     inkscape:current-layer="svg52" /><g
     display="none"
     id="g4"><rect
       x="-65.591003"
       y="-26.698999"
       display="inline"
       fill="#000000"
       width="240.181"
       height="241.399"
       id="rect2" /></g><g
     display="none"
     id="g10"><path
       display="inline"
       d="M 32.002,31.953 H -0.001 V 0.047 Z m -31.003,-1 H 29.582 L 0.999,2.456 Z"
       id="path6" /><path
       display="inline"
       d="M 9.653,11.084 20.928,22.325 H 9.653 V 11.084 m -1,-2.409 v 14.65 h 14.694 z"
       id="path8" /></g><g
     display="none"
     id="g30"><g
       display="inline"
       id="g16"><polygon
         fill="#000000"
         points="0.499,1.251 30.792,31.453 0.499,31.453 "
         id="polygon12" /><path
         d="M 32.002,31.953 H -0.001 V 0.047 Z m -31.003,-1 H 29.582 L 0.999,2.456 Z"
         id="path14" /></g><g
       display="inline"
       id="g28"><g
         id="g20"><polygon
           fill="#000000"
           points="22.137,22.825 9.153,22.825 9.153,9.879 "
           id="polygon18" /></g><g
         id="g26"><g
           id="g24"><path
             d="M 9.653,11.084 20.928,22.325 H 9.653 V 11.084 m -1,-2.409 v 14.65 h 14.694 z"
             id="path22" /></g></g></g></g><g
     display="none"
     id="g40"><g
       display="inline"
       id="g34"><polygon
         fill="#000000"
         points="0,0.048 32,31.952 0,31.952 "
         id="polygon32" /></g><g
       display="inline"
       id="g38"><polygon
         fill="#000000"
         points="8.653,8.675 23.347,23.325 8.653,23.325 "
         id="polygon36" /></g></g><g
     id="g46"
     transform="matrix(0.3125,0,0,0.31344032,0,-0.01504514)"><g
       id="g44"><polygon
         points="32,31.952 23.347,23.325 8.653,23.325 8.653,8.675 0,0.048 0,31.952 "
         id="polygon42" /></g></g></svg>
