<svg xmlns="http://www.w3.org/2000/svg" xmlns:xlink="http://www.w3.org/1999/xlink" version="1.1" x="0px" y="0px" viewBox="0 0 100 100" style="enable-background:new 0 0 100 100;" xml:space="preserve"><path d="M51,45c-3.8,0-7,3.2-7,7c0,3.9,3.2,7,7,7c3.9,0,7-3.1,7-7C58,48.1,54.9,45,51,45z"/><path d="M84.3,51.1c0-1.3,1-2.2,2.2-2.2h5.5C91,27.9,74.1,11.1,53.2,10v5.5c0,1.3-1,2.2-2.2,2.2c-1.2,0-2.2-1-2.2-2.2V10  c-2.2,0.1-4.3,0.5-6.5,0.9c-27.9,5.3-31.6,32.3-31.6,32.3S10,46.8,9.9,49h6.5c1.1,0,2,0.9,2,2s-0.9,2-2,2H9.9l0,1  c1.5,20.6,18.1,37,38.8,38.1v-6.3c0-1.2,1-2.2,2.2-2.2c1.3,0,2.2,1,2.2,2.2v6.3c20.9-1.1,37.8-18,38.9-38.9h-5.5  C85.3,53.3,84.3,52.3,84.3,51.1z M75.8,31c-8.6,8.8-12.8,13.1-15,15.1c1,1.7,1.6,3.7,1.6,5.8c0,6.3-5.2,11.5-11.5,11.5  S39.5,58.3,39.5,52c0-6.3,5.2-11.5,11.5-11.5c2.6,0,4.9,0.9,6.9,2.3c3-2.9,10.1-10.2,14.8-14.9c0.9-0.9,2.3-0.9,3.2,0  C76.7,28.7,76.7,30.1,75.8,31z"/><text x="0" y="115" fill="#000000" font-size="5px" font-weight="bold" font-family="'Helvetica Neue', Helvetica, Arial-Unicode, Arial, Sans-serif">Created by Megan Chown</text><text x="0" y="120" fill="#000000" font-size="5px" font-weight="bold" font-family="'Helvetica Neue', Helvetica, Arial-Unicode, Arial, Sans-serif">from the Noun Project</text></svg>