<?xml version="1.0" encoding="UTF-8" standalone="no"?>
<svg
   xmlns:dc="http://purl.org/dc/elements/1.1/"
   xmlns:cc="http://creativecommons.org/ns#"
   xmlns:rdf="http://www.w3.org/1999/02/22-rdf-syntax-ns#"
   xmlns:svg="http://www.w3.org/2000/svg"
   xmlns="http://www.w3.org/2000/svg"
   xmlns:sodipodi="http://sodipodi.sourceforge.net/DTD/sodipodi-0.dtd"
   xmlns:inkscape="http://www.inkscape.org/namespaces/inkscape"
   version="1.1"
   x="0px"
   y="0px"
   viewBox="0 0 10 10"
   xml:space="preserve"
   id="svg10"
   sodipodi:docname="5.svg"
   width="10"
   height="10"
   inkscape:version="1.0.2 (e86c870879, 2021-01-15, custom)"><metadata
     id="metadata16"><rdf:RDF><cc:Work
         rdf:about=""><dc:format>image/svg+xml</dc:format><dc:type
           rdf:resource="http://purl.org/dc/dcmitype/StillImage" /><dc:title></dc:title></cc:Work></rdf:RDF></metadata><defs
     id="defs14" /><sodipodi:namedview
     pagecolor="#ffffff"
     bordercolor="#666666"
     borderopacity="1"
     objecttolerance="10"
     gridtolerance="10"
     guidetolerance="10"
     inkscape:pageopacity="0"
     inkscape:pageshadow="2"
     inkscape:window-width="1920"
     inkscape:window-height="986"
     id="namedview12"
     showgrid="false"
     inkscape:zoom="8"
     inkscape:cx="50"
     inkscape:cy="36.166667"
     inkscape:window-x="-11"
     inkscape:window-y="-11"
     inkscape:window-maximized="1"
     inkscape:current-layer="svg10" /><path
     d="m 5.0060901,4.2630938 c -0.4628501,0 -0.8526187,0.3897686 -0.8526187,0.8526187 0,0.4750305 0.3897686,0.8526188 0.8526187,0.8526188 0.4750305,0 0.8526188,-0.3775883 0.8526188,-0.8526188 0,-0.4750304 -0.3775883,-0.8526187 -0.8526188,-0.8526187 z"
     id="path2"
     style="stroke-width:0.121803" /><path
     d="m 9.0621194,5.0060901 c 0,-0.1583434 0.1218026,-0.2679659 0.2679659,-0.2679659 H 10 C 9.8781973,2.180268 7.819732,0.13398295 5.274056,0 v 0.66991474 c 0,0.15834348 -0.1218027,0.26796589 -0.2679659,0.26796589 -0.1461632,0 -0.2679659,-0.12180268 -0.2679659,-0.26796589 V 0 C 4.4701583,0.01218027 4.2143727,0.06090134 3.9464068,0.10962241 0.54811206,0.75517661 0.09744214,4.043849 0.09744214,4.043849 c 0,0 -0.08526187,0.4384896 -0.09744214,0.7064555 h 0.79171742 c 0.13398295,0 0.24360538,0.1096224 0.24360538,0.2436054 0,0.1339829 -0.10962243,0.2436053 -0.24360538,0.2436053 H 0 V 5.3593179 C 0.18270402,7.8684531 2.2046285,9.8660171 4.725944,10 V 9.2326431 c 0,-0.1461632 0.1218027,-0.2679659 0.2679659,-0.2679659 0.1583434,0 0.2679659,0.1218027 0.2679659,0.2679659 V 10 C 7.8075518,9.8660171 9.8660171,7.8075518 10,5.2618758 H 9.3300853 C 9.183922,5.274056 9.0621194,5.1522533 9.0621194,5.0060901 Z M 8.0267966,2.5578563 C 6.9792935,3.6297199 6.4677223,4.1534714 6.1997564,4.3970767 c 0.1218027,0.2070646 0.1948843,0.45067 0.1948843,0.7064556 0,0.7673569 -0.633374,1.4007308 -1.4007308,1.4007308 -0.7673569,0 -1.3885506,-0.6211937 -1.3885506,-1.3885506 0,-0.7673568 0.633374,-1.4007308 1.4007308,-1.4007308 0.316687,0 0.5968332,0.1096224 0.8404385,0.2801462 0.3654081,-0.3532278 1.2302071,-1.2423873 1.8026797,-1.8148599 0.1096224,-0.1096224 0.2801461,-0.1096224 0.3897686,0 0.097442,0.097442 0.097442,0.2679659 -0.01218,0.3775883 z"
     id="path4"
     style="stroke-width:0.121803" /></svg>
