<?xml version="1.0" encoding="UTF-8" standalone="no"?>
<svg
   xmlns:dc="http://purl.org/dc/elements/1.1/"
   xmlns:cc="http://creativecommons.org/ns#"
   xmlns:rdf="http://www.w3.org/1999/02/22-rdf-syntax-ns#"
   xmlns:svg="http://www.w3.org/2000/svg"
   xmlns="http://www.w3.org/2000/svg"
   xmlns:sodipodi="http://sodipodi.sourceforge.net/DTD/sodipodi-0.dtd"
   xmlns:inkscape="http://www.inkscape.org/namespaces/inkscape"
   version="1.1"
   x="0px"
   y="0px"
   viewBox="0 0 10 10"
   enable-background="new 0 0 32 32"
   xml:space="preserve"
   id="svg76"
   sodipodi:docname="6.svg"
   width="10"
   height="10"
   inkscape:version="1.0.2 (e86c870879, 2021-01-15, custom)"><metadata
     id="metadata82"><rdf:RDF><cc:Work
         rdf:about=""><dc:format>image/svg+xml</dc:format><dc:type
           rdf:resource="http://purl.org/dc/dcmitype/StillImage" /><dc:title></dc:title></cc:Work></rdf:RDF></metadata><defs
     id="defs80" /><sodipodi:namedview
     pagecolor="#ffffff"
     bordercolor="#666666"
     borderopacity="1"
     objecttolerance="10"
     gridtolerance="10"
     guidetolerance="10"
     inkscape:pageopacity="0"
     inkscape:pageshadow="2"
     inkscape:window-width="1920"
     inkscape:window-height="986"
     id="namedview78"
     showgrid="false"
     inkscape:zoom="25"
     inkscape:cx="16"
     inkscape:cy="9.52"
     inkscape:window-x="-11"
     inkscape:window-y="-11"
     inkscape:window-maximized="1"
     inkscape:current-layer="svg76" /><g
     display="none"
     id="g4"><rect
       x="-247.33299"
       y="-144.651"
       display="inline"
       fill="#000000"
       width="473.33301"
       height="236"
       id="rect2" /></g><g
     display="none"
     id="g18"><g
       display="inline"
       id="g8"><polygon
         fill="#000000"
         points="8.117,13.624 16,0 23.883,13.624 "
         id="polygon6" /></g><g
       display="inline"
       id="g12"><polygon
         fill="#000000"
         points="0,28.639 7.883,15.015 15.767,28.639 "
         id="polygon10" /></g><g
       display="inline"
       id="g16"><polygon
         fill="#000000"
         points="16.233,28.639 24.117,15.015 32,28.639 "
         id="polygon14" /></g></g><g
     display="none"
     id="g38"><g
       display="inline"
       id="g24"><g
         id="g22"><path
           fill="#000000"
           d="m 16,1.997 6.149,10.627 H 9.851 L 16,1.997 M 16,0 8.117,13.624 h 15.767 z"
           id="path20" /></g></g><g
       display="inline"
       id="g30"><g
         id="g28"><path
           fill="#000000"
           d="m 7.883,17.012 6.149,10.627 H 1.734 L 7.883,17.012 m 0,-1.997 L 0,28.639 h 15.767 z"
           id="path26" /></g></g><g
       display="inline"
       id="g36"><g
         id="g34"><path
           fill="#000000"
           d="m 24.117,17.012 6.149,10.627 H 17.967 l 6.15,-10.627 m 0,-1.997 -7.883,13.624 H 32 Z"
           id="path32" /></g></g></g><g
     display="none"
     id="g62"><g
       display="inline"
       id="g46"><polygon
         fill="#000000"
         points="23.017,13.124 8.983,13.124 16,0.998 "
         id="polygon40" /><g
         id="g44"><path
           d="m 16,1.997 6.149,10.627 H 9.851 L 16,1.997 M 16,0 8.117,13.624 h 15.767 z"
           id="path42" /></g></g><g
       display="inline"
       id="g52"><polygon
         fill="#000000"
         points="14.899,28.14 0.867,28.14 7.884,16.014 "
         id="polygon48" /><path
         fill="#000000"
         d="m 7.883,17.012 6.149,10.627 H 1.734 L 7.883,17.012 m 0,-1.997 L 0,28.639 h 15.767 z"
         id="path50" /></g><g
       display="inline"
       id="g60"><polygon
         fill="#000000"
         points="31.133,28.14 17.101,28.14 24.116,16.014 "
         id="polygon54" /><g
         id="g58"><path
           d="m 24.117,17.012 6.149,10.627 H 17.967 l 6.15,-10.627 m 0,-1.997 -7.883,13.624 H 32 Z"
           id="path56" /></g></g></g><g
     id="g70"
     transform="matrix(0.3125,0,0,0.31425678,0,0.5)"><polygon
       points="16,0 23.883,13.624 8.117,13.624 "
       id="polygon64" /><polygon
       points="7.883,15.015 15.767,28.639 0,28.639 "
       id="polygon66" /><polygon
       points="24.117,15.015 32,28.639 16.233,28.639 "
       id="polygon68" /></g></svg>
