<svg xmlns="http://www.w3.org/2000/svg" xmlns:xlink="http://www.w3.org/1999/xlink" version="1.1" x="0px" y="0px" viewBox="0 0 32 32" enable-background="new 0 0 32 32" xml:space="preserve"><g display="none"><rect x="-247.333" y="-144.651" display="inline" fill="#000000" width="473.333" height="236"/></g><g display="none"><g display="inline"><polygon fill="#000000" points="16,0 23.883,13.624 8.117,13.624   "/></g><g display="inline"><polygon fill="#000000" points="7.883,15.015 15.767,28.639 0,28.639   "/></g><g display="inline"><polygon fill="#000000" points="24.117,15.015 32,28.639 16.233,28.639   "/></g></g><g display="none"><g display="inline"><g><path fill="#000000" d="M16,1.997l6.149,10.627H9.851L16,1.997 M16,0L8.117,13.624h15.767L16,0L16,0z"/></g></g><g display="inline"><g><path fill="#000000" d="M7.883,17.012l6.149,10.627H1.734L7.883,17.012 M7.883,15.015L0,28.639h15.767L7.883,15.015L7.883,15.015     z"/></g></g><g display="inline"><g><path fill="#000000" d="M24.117,17.012l6.149,10.627H17.967L24.117,17.012 M24.117,15.015l-7.883,13.624H32L24.117,15.015     L24.117,15.015z"/></g></g></g><g display="none"><g display="inline"><polygon fill="#000000" points="8.983,13.124 16,0.998 23.017,13.124   "/><g><path d="M16,1.997l6.149,10.627H9.851L16,1.997 M16,0L8.117,13.624h15.767L16,0L16,0z"/></g></g><g display="inline"><polygon fill="#000000" points="0.867,28.14 7.884,16.014 14.899,28.14   "/><path fill="#000000" d="M7.883,17.012l6.149,10.627H1.734L7.883,17.012 M7.883,15.015L0,28.639h15.767L7.883,15.015L7.883,15.015z    "/></g><g display="inline"><polygon fill="#000000" points="17.101,28.14 24.116,16.014 31.133,28.14   "/><g><path d="M24.117,17.012l6.149,10.627H17.967L24.117,17.012 M24.117,15.015l-7.883,13.624H32L24.117,15.015L24.117,15.015z"/></g></g></g><g><polygon points="16,0 23.883,13.624 8.117,13.624  "/><polygon points="7.883,15.015 15.767,28.639 0,28.639  "/><polygon points="24.117,15.015 32,28.639 16.233,28.639  "/></g><text x="0" y="47" fill="#000000" font-size="5px" font-weight="bold" font-family="'Helvetica Neue', Helvetica, Arial-Unicode, Arial, Sans-serif">Created by Alfredo @ IconsAlfredo.com</text><text x="0" y="52" fill="#000000" font-size="5px" font-weight="bold" font-family="'Helvetica Neue', Helvetica, Arial-Unicode, Arial, Sans-serif">from the Noun Project</text></svg>