<svg xmlns="http://www.w3.org/2000/svg" xmlns:xlink="http://www.w3.org/1999/xlink" version="1.1" x="0px" y="0px" viewBox="0 0 100 100" style="enable-background:new 0 0 100 100;" xml:space="preserve"><path d="M67.8,40.2h-1.3h-5.4h-2.5H40.9V27.3c0-5.6,4.5-10.1,10.1-10.1s10.1,4.5,10.1,10.1v1h5.4v-1c0-8.6-7-15.5-15.5-15.5  s-15.5,7-15.5,15.5v12.9h-1.3c-4.6,0-8.3,3.7-8.3,8.3v33.6c0,4.6,3.7,8.3,8.3,8.3h33.6c4.6,0,8.3-3.7,8.3-8.3V48.5  C76.1,43.9,72.4,40.2,67.8,40.2z M58.1,76.4H43.9c-1.4,0-2.3-1.5-1.6-2.7l4.7-8.1c-1.5-1.2-2.4-3-2.4-5c0-3.5,2.9-6.4,6.4-6.4  s6.4,2.9,6.4,6.4c0,2-1,3.8-2.4,5l4.7,8.1C60.3,74.9,59.5,76.4,58.1,76.4z"/><text x="0" y="115" fill="#000000" font-size="5px" font-weight="bold" font-family="'Helvetica Neue', Helvetica, Arial-Unicode, Arial, Sans-serif">Created by Megan Chown</text><text x="0" y="120" fill="#000000" font-size="5px" font-weight="bold" font-family="'Helvetica Neue', Helvetica, Arial-Unicode, Arial, Sans-serif">from the Noun Project</text></svg>