<svg xmlns="http://www.w3.org/2000/svg" xmlns:xlink="http://www.w3.org/1999/xlink" version="1.1" x="0px" y="0px" viewBox="0 0 32 40" enable-background="new 0 0 32 32" xml:space="preserve"><g display="none"><rect x="-153.333" y="-102.625" display="inline" fill="#000000" width="473.333" height="236"/></g><g display="none"><g display="inline"><g><path fill="#000000" d="M27,32H5c-2.75,0-5-2.25-5-5V5c0-2.75,2.25-5,5-5h22c2.75,0,5,2.25,5,5v22C32,29.75,29.75,32,27,32z"/></g></g><g display="inline"><polygon fill="#000000" points="20.542,8.152 16,12.695 11.458,8.152 8.152,11.458 12.695,16 8.152,20.542 11.458,23.848     16,19.305 20.542,23.848 23.848,20.542 19.305,16 23.848,11.458   "/></g></g><g display="none"><g display="inline"><g><path fill="#000000" d="M27,1c2.206,0,4,1.794,4,4v22c0,2.206-1.794,4-4,4H5c-2.206,0-4-1.794-4-4V5c0-2.206,1.794-4,4-4H27      M27,0H5C2.25,0,0,2.25,0,5v22c0,2.75,2.25,5,5,5h22c2.75,0,5-2.25,5-5V5C32,2.25,29.75,0,27,0L27,0z"/></g></g><g display="inline"><path fill="#000000" d="M20.542,9.567l1.891,1.891l-3.835,3.835L17.891,16l0.707,0.707l3.835,3.835l-1.891,1.891l-3.835-3.835    L16,17.891l-0.707,0.707l-3.835,3.835l-1.891-1.891l3.835-3.835L14.109,16l-0.707-0.707l-3.835-3.835l1.891-1.891l3.835,3.835    L16,14.109l0.707-0.707L20.542,9.567 M20.542,8.152L16,12.695l-4.542-4.542l-3.305,3.305L12.695,16l-4.542,4.542l3.305,3.305    L16,19.305l4.542,4.542l3.305-3.305L19.305,16l4.542-4.542L20.542,8.152L20.542,8.152z"/></g></g><g display="none"><g display="inline"><path fill="#000000" d="M5,31.5c-2.481,0-4.5-2.019-4.5-4.5V5c0-2.481,2.019-4.5,4.5-4.5h22c2.481,0,4.5,2.019,4.5,4.5v22    c0,2.481-2.019,4.5-4.5,4.5H5z"/><g><path d="M27,1c2.206,0,4,1.794,4,4v22c0,2.206-1.794,4-4,4H5c-2.206,0-4-1.794-4-4V5c0-2.206,1.794-4,4-4H27 M27,0H5     C2.25,0,0,2.25,0,5v22c0,2.75,2.25,5,5,5h22c2.75,0,5-2.25,5-5V5C32,2.25,29.75,0,27,0L27,0z"/></g></g><g display="inline"><polygon fill="#000000" points="16,18.598 11.458,23.14 8.859,20.543 13.401,16 8.859,11.458 11.458,8.859 16,13.402     20.542,8.859 23.141,11.458 18.599,16 23.141,20.543 20.542,23.14   "/><g><path d="M20.542,9.567l1.891,1.891l-3.835,3.835L17.891,16l0.707,0.707l3.835,3.835l-1.891,1.891l-3.835-3.835L16,17.891     l-0.707,0.707l-3.835,3.835l-1.891-1.891l3.835-3.835L14.109,16l-0.707-0.707l-3.835-3.835l1.891-1.891l3.835,3.835L16,14.109     l0.707-0.707L20.542,9.567 M20.542,8.152L16,12.695l-4.542-4.542l-3.305,3.305L12.695,16l-4.542,4.542l3.305,3.305L16,19.305     l4.542,4.542l3.305-3.305L19.305,16l4.542-4.542L20.542,8.152L20.542,8.152z"/></g></g></g><g><path d="M27,0H5C2.25,0,0,2.25,0,5v22c0,2.75,2.25,5,5,5h22c2.75,0,5-2.25,5-5V5C32,2.25,29.75,0,27,0z M23.848,20.542   l-3.305,3.305L16,19.305l-4.542,4.542l-3.305-3.305L12.695,16l-4.542-4.542l3.305-3.305L16,12.695l4.542-4.542l3.305,3.305   L19.305,16L23.848,20.542z"/></g><text x="0" y="47" fill="#000000" font-size="5px" font-weight="bold" font-family="'Helvetica Neue', Helvetica, Arial-Unicode, Arial, Sans-serif">Created by Alfredo @ IconsAlfredo.com</text><text x="0" y="52" fill="#000000" font-size="5px" font-weight="bold" font-family="'Helvetica Neue', Helvetica, Arial-Unicode, Arial, Sans-serif">from the Noun Project</text></svg>