<?xml version="1.0" encoding="utf-8" ?>
<svg baseProfile="tiny" height="220" version="1.2" width="220" xmlns="http://www.w3.org/2000/svg" xmlns:ev="http://www.w3.org/2001/xml-events" xmlns:xlink="http://www.w3.org/1999/xlink"><defs /><line stroke="rgb(200,200,200)" x1="0" x2="0" y1="0" y2="220" /><line stroke="rgb(200,200,200)" x1="20" x2="20" y1="0" y2="220" /><line stroke="rgb(200,200,200)" x1="40" x2="40" y1="0" y2="220" /><line stroke="rgb(200,200,200)" x1="60" x2="60" y1="0" y2="220" /><line stroke="rgb(200,200,200)" x1="80" x2="80" y1="0" y2="220" /><line stroke="rgb(200,200,200)" x1="100" x2="100" y1="0" y2="220" /><line stroke="rgb(200,200,200)" x1="120" x2="120" y1="0" y2="220" /><line stroke="rgb(200,200,200)" x1="140" x2="140" y1="0" y2="220" /><line stroke="rgb(200,200,200)" x1="160" x2="160" y1="0" y2="220" /><line stroke="rgb(200,200,200)" x1="180" x2="180" y1="0" y2="220" /><line stroke="rgb(200,200,200)" x1="200" x2="200" y1="0" y2="220" /><line stroke="rgb(200,200,200)" x1="0" x2="220" y1="0" y2="0" /><line stroke="rgb(200,200,200)" x1="0" x2="220" y1="20" y2="20" /><line stroke="rgb(200,200,200)" x1="0" x2="220" y1="40" y2="40" /><line stroke="rgb(200,200,200)" x1="0" x2="220" y1="60" y2="60" /><line stroke="rgb(200,200,200)" x1="0" x2="220" y1="80" y2="80" /><line stroke="rgb(200,200,200)" x1="0" x2="220" y1="100" y2="100" /><line stroke="rgb(200,200,200)" x1="0" x2="220" y1="120" y2="120" /><line stroke="rgb(200,200,200)" x1="0" x2="220" y1="140" y2="140" /><line stroke="rgb(200,200,200)" x1="0" x2="220" y1="160" y2="160" /><line stroke="rgb(200,200,200)" x1="0" x2="220" y1="180" y2="180" /><line stroke="rgb(200,200,200)" x1="0" x2="220" y1="200" y2="200" /><line stroke="rgb(200,200,200)" x1="220" x2="220" y1="0" y2="200" /><line stroke="rgb(200,200,200)" x1="0" x2="200" y1="220" y2="220" /><text stroke="rgb(128,128,128)" x="6.666666666666667" y="215.0">1</text><text stroke="rgb(128,128,128)" x="26.666666666666668" y="215.0">2</text><text stroke="rgb(128,128,128)" x="46.666666666666664" y="215.0">3</text><text stroke="rgb(128,128,128)" x="66.66666666666667" y="215.0">4</text><text stroke="rgb(128,128,128)" x="86.66666666666667" y="215.0">5</text><text stroke="rgb(128,128,128)" x="106.66666666666667" y="215.0">6</text><text stroke="rgb(128,128,128)" x="126.66666666666667" y="215.0">7</text><text stroke="rgb(128,128,128)" x="146.66666666666666" y="215.0">8</text><text stroke="rgb(128,128,128)" x="166.66666666666666" y="215.0">9</text><text stroke="rgb(128,128,128)" x="182.0" y="215.0">10</text><text stroke="rgb(128,128,128)" x="206.66666666666666" y="16.0">1</text><text stroke="rgb(128,128,128)" x="206.66666666666666" y="36.0">2</text><text stroke="rgb(128,128,128)" x="206.66666666666666" y="56.0">3</text><text stroke="rgb(128,128,128)" x="206.66666666666666" y="76.0">4</text><text stroke="rgb(128,128,128)" x="206.66666666666666" y="96.0">5</text><text stroke="rgb(128,128,128)" x="206.66666666666666" y="116.0">6</text><text stroke="rgb(128,128,128)" x="206.66666666666666" y="136.0">7</text><text stroke="rgb(128,128,128)" x="206.66666666666666" y="156.0">8</text><text stroke="rgb(128,128,128)" x="206.66666666666666" y="176.0">9</text><text stroke="rgb(128,128,128)" x="202.0" y="196.0">10</text></svg>